<mxfile host="app.diagrams.net" modified="2024-04-14T06:57:59.006Z" agent="Mozilla/5.0 (Windows NT 10.0; Win64; x64) AppleWebKit/537.36 (KHTML, like Gecko) Chrome/123.0.0.0 Safari/537.36 Edg/123.0.0.0" etag="MojGcvAB8wqquZAntedc" version="24.2.5" type="github">
  <diagram name="Page-1" id="3m78d9Aw6r9-III6AFRH">
    <mxGraphModel dx="1386" dy="751" grid="1" gridSize="10" guides="1" tooltips="1" connect="1" arrows="1" fold="1" page="1" pageScale="1" pageWidth="850" pageHeight="1100" math="0" shadow="0">
      <root>
        <mxCell id="0" />
        <mxCell id="1" parent="0" />
        <mxCell id="5wu6l3aL7e00Odp9wcE4-36" style="edgeStyle=orthogonalEdgeStyle;rounded=0;orthogonalLoop=1;jettySize=auto;html=1;" edge="1" parent="1" source="5wu6l3aL7e00Odp9wcE4-1" target="5wu6l3aL7e00Odp9wcE4-30">
          <mxGeometry relative="1" as="geometry" />
        </mxCell>
        <mxCell id="5wu6l3aL7e00Odp9wcE4-1" value="" style="shape=mxgraph.cisco.switches.workgroup_switch;html=1;pointerEvents=1;dashed=0;fillColor=#036897;strokeColor=#ffffff;strokeWidth=2;verticalLabelPosition=bottom;verticalAlign=top;align=center;outlineConnect=0;" vertex="1" parent="1">
          <mxGeometry x="139.7" y="460" width="60.6" height="30" as="geometry" />
        </mxCell>
        <mxCell id="5wu6l3aL7e00Odp9wcE4-38" style="edgeStyle=orthogonalEdgeStyle;rounded=0;orthogonalLoop=1;jettySize=auto;html=1;" edge="1" parent="1" source="5wu6l3aL7e00Odp9wcE4-2" target="5wu6l3aL7e00Odp9wcE4-33">
          <mxGeometry relative="1" as="geometry" />
        </mxCell>
        <mxCell id="5wu6l3aL7e00Odp9wcE4-2" value="" style="shape=mxgraph.cisco.switches.workgroup_switch;html=1;pointerEvents=1;dashed=0;fillColor=#036897;strokeColor=#ffffff;strokeWidth=2;verticalLabelPosition=bottom;verticalAlign=top;align=center;outlineConnect=0;" vertex="1" parent="1">
          <mxGeometry x="364" y="460" width="60.6" height="30" as="geometry" />
        </mxCell>
        <mxCell id="5wu6l3aL7e00Odp9wcE4-37" style="edgeStyle=orthogonalEdgeStyle;rounded=0;orthogonalLoop=1;jettySize=auto;html=1;" edge="1" parent="1" source="5wu6l3aL7e00Odp9wcE4-3" target="5wu6l3aL7e00Odp9wcE4-32">
          <mxGeometry relative="1" as="geometry" />
        </mxCell>
        <mxCell id="5wu6l3aL7e00Odp9wcE4-3" value="" style="shape=mxgraph.cisco.switches.workgroup_switch;html=1;pointerEvents=1;dashed=0;fillColor=#036897;strokeColor=#ffffff;strokeWidth=2;verticalLabelPosition=bottom;verticalAlign=top;align=center;outlineConnect=0;" vertex="1" parent="1">
          <mxGeometry x="243.82999999999998" y="460" width="60.6" height="30" as="geometry" />
        </mxCell>
        <mxCell id="5wu6l3aL7e00Odp9wcE4-4" value="" style="shape=mxgraph.cisco.switches.workgroup_switch;html=1;pointerEvents=1;dashed=0;fillColor=#036897;strokeColor=#ffffff;strokeWidth=2;verticalLabelPosition=bottom;verticalAlign=top;align=center;outlineConnect=0;" vertex="1" parent="1">
          <mxGeometry x="502.77" y="460" width="60.6" height="30" as="geometry" />
        </mxCell>
        <mxCell id="5wu6l3aL7e00Odp9wcE4-40" style="edgeStyle=orthogonalEdgeStyle;rounded=0;orthogonalLoop=1;jettySize=auto;html=1;" edge="1" parent="1" source="5wu6l3aL7e00Odp9wcE4-5" target="5wu6l3aL7e00Odp9wcE4-35">
          <mxGeometry relative="1" as="geometry" />
        </mxCell>
        <mxCell id="5wu6l3aL7e00Odp9wcE4-5" value="" style="shape=mxgraph.cisco.switches.workgroup_switch;html=1;pointerEvents=1;dashed=0;fillColor=#036897;strokeColor=#ffffff;strokeWidth=2;verticalLabelPosition=bottom;verticalAlign=top;align=center;outlineConnect=0;" vertex="1" parent="1">
          <mxGeometry x="640" y="460" width="60.6" height="30" as="geometry" />
        </mxCell>
        <mxCell id="5wu6l3aL7e00Odp9wcE4-28" style="edgeStyle=orthogonalEdgeStyle;rounded=0;orthogonalLoop=1;jettySize=auto;html=1;exitX=0.5;exitY=1;exitDx=0;exitDy=0;exitPerimeter=0;" edge="1" parent="1" source="5wu6l3aL7e00Odp9wcE4-8" target="5wu6l3aL7e00Odp9wcE4-9">
          <mxGeometry relative="1" as="geometry">
            <mxPoint x="420" y="300" as="sourcePoint" />
            <Array as="points">
              <mxPoint x="424" y="300" />
              <mxPoint x="329" y="300" />
            </Array>
          </mxGeometry>
        </mxCell>
        <mxCell id="5wu6l3aL7e00Odp9wcE4-29" style="edgeStyle=orthogonalEdgeStyle;rounded=0;orthogonalLoop=1;jettySize=auto;html=1;exitX=0.5;exitY=1;exitDx=0;exitDy=0;exitPerimeter=0;" edge="1" parent="1" source="5wu6l3aL7e00Odp9wcE4-8" target="5wu6l3aL7e00Odp9wcE4-10">
          <mxGeometry relative="1" as="geometry" />
        </mxCell>
        <mxCell id="5wu6l3aL7e00Odp9wcE4-8" value="Core" style="shape=mxgraph.cisco.routers.router;html=1;pointerEvents=1;dashed=0;fillColor=#036897;strokeColor=#ffffff;strokeWidth=2;verticalLabelPosition=bottom;verticalAlign=top;align=center;outlineConnect=0;" vertex="1" parent="1">
          <mxGeometry x="395" y="230" width="58.87" height="40" as="geometry" />
        </mxCell>
        <mxCell id="5wu6l3aL7e00Odp9wcE4-13" style="edgeStyle=orthogonalEdgeStyle;rounded=0;orthogonalLoop=1;jettySize=auto;html=1;endArrow=none;endFill=0;dashed=1;" edge="1" parent="1" source="5wu6l3aL7e00Odp9wcE4-9" target="5wu6l3aL7e00Odp9wcE4-10">
          <mxGeometry relative="1" as="geometry" />
        </mxCell>
        <mxCell id="5wu6l3aL7e00Odp9wcE4-18" style="edgeStyle=orthogonalEdgeStyle;rounded=0;orthogonalLoop=1;jettySize=auto;html=1;exitX=0.5;exitY=1;exitDx=0;exitDy=0;exitPerimeter=0;" edge="1" parent="1" source="5wu6l3aL7e00Odp9wcE4-9" target="5wu6l3aL7e00Odp9wcE4-1">
          <mxGeometry relative="1" as="geometry" />
        </mxCell>
        <mxCell id="5wu6l3aL7e00Odp9wcE4-19" style="edgeStyle=orthogonalEdgeStyle;rounded=0;orthogonalLoop=1;jettySize=auto;html=1;exitX=0.5;exitY=1;exitDx=0;exitDy=0;exitPerimeter=0;" edge="1" parent="1" source="5wu6l3aL7e00Odp9wcE4-9" target="5wu6l3aL7e00Odp9wcE4-3">
          <mxGeometry relative="1" as="geometry" />
        </mxCell>
        <mxCell id="5wu6l3aL7e00Odp9wcE4-21" style="edgeStyle=orthogonalEdgeStyle;rounded=0;orthogonalLoop=1;jettySize=auto;html=1;exitX=0.5;exitY=1;exitDx=0;exitDy=0;exitPerimeter=0;" edge="1" parent="1" source="5wu6l3aL7e00Odp9wcE4-9" target="5wu6l3aL7e00Odp9wcE4-2">
          <mxGeometry relative="1" as="geometry" />
        </mxCell>
        <mxCell id="5wu6l3aL7e00Odp9wcE4-22" style="edgeStyle=orthogonalEdgeStyle;rounded=0;orthogonalLoop=1;jettySize=auto;html=1;exitX=0.5;exitY=1;exitDx=0;exitDy=0;exitPerimeter=0;" edge="1" parent="1" source="5wu6l3aL7e00Odp9wcE4-9" target="5wu6l3aL7e00Odp9wcE4-4">
          <mxGeometry relative="1" as="geometry" />
        </mxCell>
        <mxCell id="5wu6l3aL7e00Odp9wcE4-23" style="edgeStyle=orthogonalEdgeStyle;rounded=0;orthogonalLoop=1;jettySize=auto;html=1;exitX=0.5;exitY=1;exitDx=0;exitDy=0;exitPerimeter=0;" edge="1" parent="1" source="5wu6l3aL7e00Odp9wcE4-9" target="5wu6l3aL7e00Odp9wcE4-5">
          <mxGeometry relative="1" as="geometry" />
        </mxCell>
        <mxCell id="5wu6l3aL7e00Odp9wcE4-9" value="" style="shape=mxgraph.cisco.switches.layer_3_switch;html=1;pointerEvents=1;dashed=0;fillColor=#036897;strokeColor=#ffffff;strokeWidth=2;verticalLabelPosition=bottom;verticalAlign=top;align=center;outlineConnect=0;" vertex="1" parent="1">
          <mxGeometry x="304.43" y="330" width="50" height="50" as="geometry" />
        </mxCell>
        <mxCell id="5wu6l3aL7e00Odp9wcE4-17" style="edgeStyle=orthogonalEdgeStyle;rounded=0;orthogonalLoop=1;jettySize=auto;html=1;entryX=0.5;entryY=0;entryDx=0;entryDy=0;entryPerimeter=0;" edge="1" parent="1" source="5wu6l3aL7e00Odp9wcE4-10" target="5wu6l3aL7e00Odp9wcE4-1">
          <mxGeometry relative="1" as="geometry">
            <Array as="points">
              <mxPoint x="519" y="420" />
              <mxPoint x="170" y="420" />
            </Array>
          </mxGeometry>
        </mxCell>
        <mxCell id="5wu6l3aL7e00Odp9wcE4-20" style="edgeStyle=orthogonalEdgeStyle;rounded=0;orthogonalLoop=1;jettySize=auto;html=1;exitX=0.5;exitY=1;exitDx=0;exitDy=0;exitPerimeter=0;entryX=0.5;entryY=0;entryDx=0;entryDy=0;entryPerimeter=0;" edge="1" parent="1" source="5wu6l3aL7e00Odp9wcE4-10" target="5wu6l3aL7e00Odp9wcE4-3">
          <mxGeometry relative="1" as="geometry">
            <mxPoint x="330" y="460" as="targetPoint" />
            <Array as="points">
              <mxPoint x="519" y="420" />
              <mxPoint x="274" y="420" />
            </Array>
          </mxGeometry>
        </mxCell>
        <mxCell id="5wu6l3aL7e00Odp9wcE4-24" style="edgeStyle=orthogonalEdgeStyle;rounded=0;orthogonalLoop=1;jettySize=auto;html=1;exitX=0.5;exitY=1;exitDx=0;exitDy=0;exitPerimeter=0;" edge="1" parent="1" source="5wu6l3aL7e00Odp9wcE4-10" target="5wu6l3aL7e00Odp9wcE4-2">
          <mxGeometry relative="1" as="geometry" />
        </mxCell>
        <mxCell id="5wu6l3aL7e00Odp9wcE4-26" style="edgeStyle=orthogonalEdgeStyle;rounded=0;orthogonalLoop=1;jettySize=auto;html=1;exitX=0.5;exitY=1;exitDx=0;exitDy=0;exitPerimeter=0;" edge="1" parent="1" source="5wu6l3aL7e00Odp9wcE4-10" target="5wu6l3aL7e00Odp9wcE4-5">
          <mxGeometry relative="1" as="geometry" />
        </mxCell>
        <mxCell id="5wu6l3aL7e00Odp9wcE4-10" value="" style="shape=mxgraph.cisco.switches.layer_3_switch;html=1;pointerEvents=1;dashed=0;fillColor=#036897;strokeColor=#ffffff;strokeWidth=2;verticalLabelPosition=bottom;verticalAlign=top;align=center;outlineConnect=0;" vertex="1" parent="1">
          <mxGeometry x="494.43" y="330" width="50" height="50" as="geometry" />
        </mxCell>
        <mxCell id="5wu6l3aL7e00Odp9wcE4-11" value="Internet ISP" style="image;aspect=fixed;perimeter=ellipsePerimeter;html=1;align=center;shadow=0;dashed=0;spacingTop=3;image=img/lib/active_directory/internet_cloud.svg;" vertex="1" parent="1">
          <mxGeometry x="400" y="120" width="50" height="31.5" as="geometry" />
        </mxCell>
        <mxCell id="5wu6l3aL7e00Odp9wcE4-25" style="edgeStyle=orthogonalEdgeStyle;rounded=0;orthogonalLoop=1;jettySize=auto;html=1;exitX=0.5;exitY=1;exitDx=0;exitDy=0;exitPerimeter=0;entryX=0.5;entryY=0;entryDx=0;entryDy=0;entryPerimeter=0;" edge="1" parent="1" source="5wu6l3aL7e00Odp9wcE4-10" target="5wu6l3aL7e00Odp9wcE4-4">
          <mxGeometry relative="1" as="geometry" />
        </mxCell>
        <mxCell id="5wu6l3aL7e00Odp9wcE4-30" value="" style="verticalLabelPosition=bottom;html=1;verticalAlign=top;align=center;strokeColor=none;fillColor=#000000;shape=mxgraph.azure.computer;pointerEvents=1;" vertex="1" parent="1">
          <mxGeometry x="153.33999999999997" y="510" width="33.33" height="30" as="geometry" />
        </mxCell>
        <mxCell id="5wu6l3aL7e00Odp9wcE4-32" value="" style="verticalLabelPosition=bottom;html=1;verticalAlign=top;align=center;strokeColor=none;fillColor=#000000;shape=mxgraph.azure.computer;pointerEvents=1;" vertex="1" parent="1">
          <mxGeometry x="257.46999999999997" y="515" width="33.33" height="30" as="geometry" />
        </mxCell>
        <mxCell id="5wu6l3aL7e00Odp9wcE4-33" value="" style="verticalLabelPosition=bottom;html=1;verticalAlign=top;align=center;strokeColor=none;fillColor=#000000;shape=mxgraph.azure.computer;pointerEvents=1;" vertex="1" parent="1">
          <mxGeometry x="377.64" y="510" width="33.33" height="30" as="geometry" />
        </mxCell>
        <mxCell id="5wu6l3aL7e00Odp9wcE4-34" value="" style="verticalLabelPosition=bottom;html=1;verticalAlign=top;align=center;strokeColor=none;fillColor=#000000;shape=mxgraph.azure.computer;pointerEvents=1;" vertex="1" parent="1">
          <mxGeometry x="516.4" y="510" width="33.33" height="30" as="geometry" />
        </mxCell>
        <mxCell id="5wu6l3aL7e00Odp9wcE4-35" value="" style="verticalLabelPosition=bottom;html=1;verticalAlign=top;align=center;strokeColor=none;fillColor=#000000;shape=mxgraph.azure.computer;pointerEvents=1;" vertex="1" parent="1">
          <mxGeometry x="653.64" y="510" width="33.33" height="30" as="geometry" />
        </mxCell>
        <mxCell id="5wu6l3aL7e00Odp9wcE4-39" style="edgeStyle=orthogonalEdgeStyle;rounded=0;orthogonalLoop=1;jettySize=auto;html=1;entryX=0.5;entryY=0;entryDx=0;entryDy=0;entryPerimeter=0;" edge="1" parent="1" source="5wu6l3aL7e00Odp9wcE4-4" target="5wu6l3aL7e00Odp9wcE4-34">
          <mxGeometry relative="1" as="geometry" />
        </mxCell>
        <mxCell id="5wu6l3aL7e00Odp9wcE4-42" value="Accounting&lt;br&gt;Department" style="text;html=1;align=center;verticalAlign=middle;resizable=0;points=[];autosize=1;strokeColor=none;fillColor=none;" vertex="1" parent="1">
          <mxGeometry x="125" y="550" width="90" height="40" as="geometry" />
        </mxCell>
        <mxCell id="5wu6l3aL7e00Odp9wcE4-43" value="Administration&lt;br&gt;Department" style="text;html=1;align=center;verticalAlign=middle;resizable=0;points=[];autosize=1;strokeColor=none;fillColor=none;" vertex="1" parent="1">
          <mxGeometry x="224.13" y="550" width="100" height="40" as="geometry" />
        </mxCell>
        <mxCell id="5wu6l3aL7e00Odp9wcE4-44" value="Executives and&amp;nbsp;&lt;div&gt;Corporate Services&lt;br&gt;Department&lt;br&gt;&lt;/div&gt;" style="text;html=1;align=center;verticalAlign=middle;resizable=0;points=[];autosize=1;strokeColor=none;fillColor=none;" vertex="1" parent="1">
          <mxGeometry x="329.31" y="545" width="130" height="60" as="geometry" />
        </mxCell>
        <mxCell id="5wu6l3aL7e00Odp9wcE4-45" value="MIS and IT&lt;br&gt;Department" style="text;html=1;align=center;verticalAlign=middle;resizable=0;points=[];autosize=1;strokeColor=none;fillColor=none;" vertex="1" parent="1">
          <mxGeometry x="488.06" y="550" width="90" height="40" as="geometry" />
        </mxCell>
        <mxCell id="5wu6l3aL7e00Odp9wcE4-46" value="HR&lt;br&gt;Department" style="text;html=1;align=center;verticalAlign=middle;resizable=0;points=[];autosize=1;strokeColor=none;fillColor=none;" vertex="1" parent="1">
          <mxGeometry x="625.3000000000001" y="555" width="90" height="40" as="geometry" />
        </mxCell>
        <mxCell id="5wu6l3aL7e00Odp9wcE4-48" style="edgeStyle=orthogonalEdgeStyle;rounded=0;orthogonalLoop=1;jettySize=auto;html=1;entryX=0.5;entryY=0;entryDx=0;entryDy=0;entryPerimeter=0;" edge="1" parent="1" source="5wu6l3aL7e00Odp9wcE4-11" target="5wu6l3aL7e00Odp9wcE4-8">
          <mxGeometry relative="1" as="geometry" />
        </mxCell>
        <mxCell id="5wu6l3aL7e00Odp9wcE4-49" value="L3 Active" style="text;html=1;align=center;verticalAlign=middle;resizable=0;points=[];autosize=1;strokeColor=none;fillColor=none;" vertex="1" parent="1">
          <mxGeometry x="224.13" y="340" width="70" height="30" as="geometry" />
        </mxCell>
        <mxCell id="5wu6l3aL7e00Odp9wcE4-50" value="L3 Standby" style="text;html=1;align=center;verticalAlign=middle;resizable=0;points=[];autosize=1;strokeColor=none;fillColor=none;" vertex="1" parent="1">
          <mxGeometry x="558.37" y="340" width="80" height="30" as="geometry" />
        </mxCell>
        <mxCell id="5wu6l3aL7e00Odp9wcE4-51" value="L2" style="text;html=1;align=center;verticalAlign=middle;resizable=0;points=[];autosize=1;strokeColor=none;fillColor=none;" vertex="1" parent="1">
          <mxGeometry x="85" y="460" width="40" height="30" as="geometry" />
        </mxCell>
        <mxCell id="5wu6l3aL7e00Odp9wcE4-52" value="L2" style="text;html=1;align=center;verticalAlign=middle;resizable=0;points=[];autosize=1;strokeColor=none;fillColor=none;" vertex="1" parent="1">
          <mxGeometry x="203.82999999999998" y="460" width="40" height="30" as="geometry" />
        </mxCell>
        <mxCell id="5wu6l3aL7e00Odp9wcE4-53" value="L2" style="text;html=1;align=center;verticalAlign=middle;resizable=0;points=[];autosize=1;strokeColor=none;fillColor=none;" vertex="1" parent="1">
          <mxGeometry x="314.42999999999995" y="460" width="40" height="30" as="geometry" />
        </mxCell>
        <mxCell id="5wu6l3aL7e00Odp9wcE4-54" value="L2" style="text;html=1;align=center;verticalAlign=middle;resizable=0;points=[];autosize=1;strokeColor=none;fillColor=none;" vertex="1" parent="1">
          <mxGeometry x="459.30999999999995" y="460" width="40" height="30" as="geometry" />
        </mxCell>
        <mxCell id="5wu6l3aL7e00Odp9wcE4-55" value="L2" style="text;html=1;align=center;verticalAlign=middle;resizable=0;points=[];autosize=1;strokeColor=none;fillColor=none;" vertex="1" parent="1">
          <mxGeometry x="598.3699999999999" y="460" width="40" height="30" as="geometry" />
        </mxCell>
      </root>
    </mxGraphModel>
  </diagram>
</mxfile>
